<?xml version="1.0" standalone="no"?>
<!DOCTYPE svg PUBLIC "-//W3C//DTD SVG 20010904//EN"
 "http://www.w3.org/TR/2001/REC-SVG-20010904/DTD/svg10.dtd">
<svg version="1.0" xmlns="http://www.w3.org/2000/svg"
 width="225.000000pt" height="225.000000pt" viewBox="0 0 225.000000 225.000000"
 preserveAspectRatio="xMidYMid meet">
<metadata>
Created by potrace 1.11, written by Peter Selinger 2001-2013
</metadata>
<g transform="translate(0.000000,225.000000) scale(0.100000,-0.100000)"
fill="#000000" stroke="none">
<path d="M588 1685 c-2 -2 -30 -4 -63 -6 -130 -5 -274 -67 -360 -153 -56 -57
-117 -160 -135 -228 -20 -73 -21 -80 -22 -169 0 -107 15 -180 54 -261 89 -185
244 -288 456 -305 182 -14 339 62 528 252 l80 82 80 -81 c43 -45 93 -92 109
-106 55 -47 151 -101 222 -125 171 -57 412 -4 538 120 39 38 137 183 134 198
0 1 2 9 5 17 34 97 39 259 11 356 -60 208 -194 337 -410 393 -67 18 -231 7
-300 -19 -92 -35 -191 -105 -292 -207 -50 -51 -94 -93 -97 -93 -3 0 -43 37
-89 83 -103 103 -119 116 -202 166 -67 40 -234 98 -247 86z m96 -325 c55 -34
159 -128 224 -203 l32 -38 -37 -40 c-160 -173 -238 -229 -330 -235 -70 -5
-115 7 -176 46 -81 51 -126 176 -105 289 35 188 230 279 392 181z m1142 7
c117 -59 169 -216 118 -357 -35 -99 -119 -159 -233 -166 -95 -6 -156 26 -279
146 -32 30 -71 72 -89 94 l-31 38 21 25 c88 103 203 203 268 233 60 28 154 23
225 -13z"/>
</g>
</svg>
